<?xml version="1.0" standalone="no"?><!DOCTYPE svg PUBLIC "-//W3C//DTD SVG 1.1//EN" "http://www.w3.org/Graphics/SVG/1.1/DTD/svg11.dtd"><svg t="1745312350738" class="icon" viewBox="0 0 1024 1024" version="1.1" xmlns="http://www.w3.org/2000/svg" p-id="5861" xmlns:xlink="http://www.w3.org/1999/xlink" width="200" height="200"><path d="M582.599111 512l369.777778 369.436444a50.232889 50.232889 0 1 1-70.997333 70.997334l-404.878223-404.48c-0.113778-0.170667-0.398222-0.227556-0.568889-0.398222A50.062222 50.062222 0 0 1 461.255111 512c-0.056889-12.913778 4.835556-25.713778 14.677333-35.612444 0.170667-0.113778 0.455111-0.170667 0.568889-0.341334l404.878223-404.48a50.232889 50.232889 0 0 1 70.997333 70.997334L582.599111 512zM178.232889 512l369.777778 369.436444a50.232889 50.232889 0 1 1-70.997334 70.997334l-404.935111-404.48c-0.056889-0.170667-0.341333-0.227556-0.568889-0.398222A50.062222 50.062222 0 0 1 56.888889 512c0-12.913778 4.835556-25.713778 14.677333-35.612444 0.170667-0.113778 0.455111-0.170667 0.568889-0.341334l404.878222-404.48a50.232889 50.232889 0 0 1 70.997334 70.997334L178.232889 512z" fill="#2c2c2c" p-id="5862"></path></svg>