<?xml version="1.0" standalone="no"?><!DOCTYPE svg PUBLIC "-//W3C//DTD SVG 1.1//EN" "http://www.w3.org/Graphics/SVG/1.1/DTD/svg11.dtd"><svg t="1745313335003" class="icon" viewBox="0 0 1024 1024" version="1.1" xmlns="http://www.w3.org/2000/svg" p-id="9401" xmlns:xlink="http://www.w3.org/1999/xlink" width="200" height="200"><path d="M630.016 883.008a28.8 28.8 0 0 0 20.992-8.96 28.8 28.8 0 0 0 0-42.048L339.008 512l312-320a28.8 28.8 0 0 0 0-41.984 28.8 28.8 0 0 0-20.992-8.96 30.592 30.592 0 0 0-20.992 7.936L278.016 489.984a29.312 29.312 0 0 0-8.96 21.504c0 8.32 2.944 15.872 8.96 22.528l331.008 340.992a30.592 30.592 0 0 0 20.992 8z" fill="#000000" fill-opacity=".8" p-id="9402"></path></svg>